# xmcd CD database file
#
# Track frame offsets:
#	150
#	27177
#	56767
#	97310
#	139252
#
# Disc length: 2503 seconds
#
# Revision: 0
# Processed by: cddbd v1.4PL0 Copyright (c) Steve Scherf et al.
# Submitted via: CDex 1.50Beta7
#
DISCID=4609c505
DTITLE=Kenny Barron - Golden Lotus
DYEAR=1900
DGENRE=Jazz
TTITLE0=Golden Lotus
TTITLE1=Dew Drop
TTITLE2=Cinco
TTITLE3=Darn That Dream
TTITLE4=Row House
EXTD=
EXTT0=
EXTT1=
EXTT2=
EXTT3=
EXTT4=
PLAYORDER=
